<?xml version="1.0" encoding="UTF-8" standalone="no"?>
<svg
   xmlns:dc="http://purl.org/dc/elements/1.1/"
   xmlns:cc="http://creativecommons.org/ns#"
   xmlns:rdf="http://www.w3.org/1999/02/22-rdf-syntax-ns#"
   xmlns:svg="http://www.w3.org/2000/svg"
   xmlns="http://www.w3.org/2000/svg"
   xmlns:sodipodi="http://sodipodi.sourceforge.net/DTD/sodipodi-0.dtd"
   xmlns:inkscape="http://www.inkscape.org/namespaces/inkscape"
   width="48"
   height="48"
   viewBox="0 0 48 48"
   version="1.1"
   id="svg8"
   sodipodi:docname="battery_empty.svg"
   inkscape:export-filename="/usr/local/bin/battery.png"
   inkscape:export-xdpi="96"
   inkscape:export-ydpi="96"
   inkscape:version="0.92.5 (2060ec1f9f, 2020-04-08)">
  <metadata
     id="metadata14">
    <rdf:RDF>
      <cc:Work
         rdf:about="">
        <dc:format>image/svg+xml</dc:format>
        <dc:type
           rdf:resource="http://purl.org/dc/dcmitype/StillImage" />
        <dc:title></dc:title>
      </cc:Work>
    </rdf:RDF>
  </metadata>
  <defs
     id="defs12" />
  <sodipodi:namedview
     pagecolor="#ffffff"
     bordercolor="#666666"
     borderopacity="1"
     objecttolerance="10"
     gridtolerance="10"
     guidetolerance="10"
     inkscape:pageopacity="0"
     inkscape:pageshadow="2"
     inkscape:window-width="1920"
     inkscape:window-height="1018"
     id="namedview10"
     showgrid="false"
     inkscape:zoom="9.8333333"
     inkscape:cx="-12.179673"
     inkscape:cy="22.436719"
     inkscape:window-x="0"
     inkscape:window-y="0"
     inkscape:window-maximized="1"
     inkscape:current-layer="svg8" />
  <path
     d="M 14,41.33 C 14,42.8 15.19,44 16.67,44 h 14.67 c 1.47,0 2.67,-2.67 2.67,-2.67 v 0"
     id="path4"
     style="fill:#ff0000"
     inkscape:connector-curvature="0"
     sodipodi:nodetypes="csssc" />
  <path
     d="M0 0h48v48h-48zm18 29h4v11l6.93-13h-9.86zm8-4v-11l-5.87 11-1.06 2h9.86l1.07-2z"
     fill="none"
     id="path2" />
  <path
     d="m 18,29 8,-15 v 11 h 4 L 20.993272,41.761775 34.01,41.33 34,10.67 C 33.999517,9.1900001 32.81,8 31.33,8 H 28 V 4 H 20 V 8 H 16.67 C 15.19,8 14,9.19 14,10.67 V 41.33 L 22,42 V 29"
     id="path6"
     style="fill:#ff0000;fill-opacity:0.3"
     inkscape:connector-curvature="0"
     sodipodi:nodetypes="ccccccssccccssccc" />
</svg>
